HIERARCHY
ROOT SpineBase
{
  OFFSET 0.000000 0.000000 0.000000
  CHANNELS 6 Xposition Yposition Zposition Zrotation Xrotation Yrotation
  JOINT SpineMid
  {
    OFFSET 0.000000 33.910647 0.000000
    CHANNELS 3 Zrotation Xrotation Yrotation
    JOINT SpineShoulder
    {
      OFFSET 0.075860 25.166850 -0.780504
      CHANNELS 3 Zrotation Xrotation Yrotation
      JOINT Neck
      {
        OFFSET 0.048408 8.361640 -0.598478
        CHANNELS 3 Zrotation Xrotation Yrotation
        JOINT Head
        {
          OFFSET -1.885538 9.866182 4.799385
          CHANNELS 3 Zrotation Xrotation Yrotation
          End Site
          {
            OFFSET 0 0 0
          }
        }
      }
      JOINT ShoulderLeft
      {
        OFFSET -10.542907 -5.889328 -12.079118
        CHANNELS 3 Zrotation Xrotation Yrotation
        JOINT ElbowLeft
        {
          OFFSET -5.161623 -23.956386 -1.869802
          CHANNELS 3 Zrotation Xrotation Yrotation
          JOINT WristLeft
          {
            OFFSET -3.763798 -23.309016 7.765068
            CHANNELS 3 Zrotation Xrotation Yrotation
            JOINT HandLeft
            {
              OFFSET -1.684303 -6.837238 2.437085
              CHANNELS 3 Zrotation Xrotation Yrotation
              JOINT HandTipLeft
              {
                OFFSET 0.928095 -5.849257 2.039854
                CHANNELS 3 Zrotation Xrotation Yrotation
                End Site
                {
                  OFFSET 0 0 0
                }
              }
              JOINT ThumbLeft
              {
                OFFSET 2.713174 1.598254 0.885648
                CHANNELS 3 Zrotation Xrotation Yrotation
                End Site
                {
                  OFFSET 0 0 0
                }
              }
            }
          }
        }
      }
      JOINT ShoulderRight
      {
        OFFSET 9.108798 -5.645831 -2.938613
        CHANNELS 3 Zrotation Xrotation Yrotation
        JOINT ElbowRight
        {
          OFFSET 8.110855 -22.492254 12.613406
          CHANNELS 3 Zrotation Xrotation Yrotation
          JOINT WristRight
          {
            OFFSET -0.035484 -22.284988 5.807147
            CHANNELS 3 Zrotation Xrotation Yrotation
            JOINT HandRight
            {
              OFFSET -0.382932 -3.016858 1.411313
              CHANNELS 3 Zrotation Xrotation Yrotation
              JOINT HandTipRight
              {
                OFFSET 0.464192 0.134088 -0.358337
                CHANNELS 3 Zrotation Xrotation Yrotation
                End Site
                {
                  OFFSET 0 0 0
                }
              }
              JOINT ThumbRight
              {
                OFFSET 0.892033 1.274882 -1.722171
                CHANNELS 3 Zrotation Xrotation Yrotation
                End Site
                {
                  OFFSET 0 0 0
                }
              }
            }
          }
        }
      }
    }
  }
  JOINT HipLeft
  {
    OFFSET -6.232979 1.528275 -4.850595
    CHANNELS 3 Zrotation Xrotation Yrotation
    JOINT KneeLeft
    {
      OFFSET 3.526350 -25.101352 -3.896330
      CHANNELS 3 Zrotation Xrotation Yrotation
      JOINT AnkleLeft
      {
        OFFSET -1.301712 -30.565744 -3.255430
        CHANNELS 3 Zrotation Xrotation Yrotation
        JOINT FootLeft
        {
          OFFSET 4.098713 -2.038579 -12.011353
          CHANNELS 3 Zrotation Xrotation Yrotation
          End Site
          {
            OFFSET 0 0 0
          }
        }
      }
    }
  }
  JOINT HipRight
  {
    OFFSET 6.662970 1.302760 -1.918775
    CHANNELS 3 Zrotation Xrotation Yrotation
    JOINT KneeRight
    {
      OFFSET 2.787672 -27.476666 0.886706
      CHANNELS 3 Zrotation Xrotation Yrotation
      JOINT AnkleRight
      {
        OFFSET 3.465295 -31.140009 -1.075043
        CHANNELS 3 Zrotation Xrotation Yrotation
        JOINT FootRight
        {
          OFFSET 0.735921 -3.038618 -9.799274
          CHANNELS 3 Zrotation Xrotation Yrotation
          End Site
          {
            OFFSET 0 0 0
          }
        }
      }
    }
  }
}
MOTION
Frames: 10
Frame Time: 0.033333
-20.709030 61.304744 302.653917 0.513204 -0.671030 -14.879306 -0.668331 0.516715 14.885325 -0.000000 0.000000 0.000000 0.365882 -0.968293 -0.361211 0.000000 0.000000 0.000000 -1.514414 0.119569 0.093751 1.544611 2.619066 -0.528749 0.377259 -3.709091 0.830632 -4.473857 4.936128 -0.983084 0.000000 0.000000 0.000000 0.000000 0.000000 0.000000 -1.739341 0.589290 -0.760373 3.134141 -2.249662 1.168634 4.972876 23.667397 -1.844028 -20.232243 -63.176012 44.455816 0.000000 0.000000 0.000000 0.000000 0.000000 0.000000 -3.513803 1.720517 15.586212 3.720719 -3.120357 -0.636948 -1.188622 1.038224 -0.937512 0.000000 0.000000 0.000000 -2.165412 2.183565 15.090500 3.025749 -2.193642 -0.169163 -4.921677 -8.095782 9.565477 0.000000 0.000000 0.000000
-20.721600 61.360004 302.558547 0.516714 -0.460965 -15.448802 -0.620843 0.306649 15.452542 -0.000000 0.000000 0.000000 0.101445 -2.197275 -0.471696 0.000000 0.000000 0.000000 -1.841113 0.563607 0.031213 1.848950 2.492961 -0.508973 0.435464 -4.308098 0.974816 -3.536243 4.632662 -0.864375 0.000000 0.000000 0.000000 0.000000 0.000000 0.000000 -1.321411 0.524185 -0.549686 2.203059 -1.363508 0.803123 5.736465 22.537404 -1.448861 -20.955268 -62.803721 44.032593 0.000000 0.000000 0.000000 0.000000 0.000000 0.000000 -0.620843 0.306649 15.452542 -0.000000 0.000000 0.000000 0.167583 -0.087958 -1.165927 0.000000 0.000000 0.000000 -2.267434 1.705568 15.623856 3.345140 -1.961108 -0.145775 -7.044204 -17.539098 22.121852 0.000000 0.000000 0.000000
-20.759769 61.412949 302.458224 0.491474 -0.270487 -16.116505 -0.547244 0.123419 16.118254 -0.000000 0.000000 0.000000 -0.230906 -3.269764 -0.526839 0.000000 0.000000 0.000000 -2.126857 0.990351 -0.028846 1.864906 2.596208 -0.602734 2.199916 -5.329690 1.930703 -6.311522 3.881000 -2.120829 0.000000 0.000000 0.000000 0.000000 0.000000 0.000000 -1.308662 0.534995 -0.538505 1.863678 -1.125905 0.701070 6.316823 21.735157 -1.118674 -21.469960 -62.328578 43.939886 0.000000 0.000000 0.000000 0.000000 0.000000 0.000000 3.200714 -1.423564 15.313707 -5.609240 4.200252 1.232926 2.561023 -1.824732 -1.421092 0.000000 0.000000 0.000000 -2.400617 1.228565 16.252722 3.836403 -1.654263 -0.115119 -7.421459 -20.360625 25.435944 0.000000 0.000000 0.000000
-20.863735 61.487709 302.351115 0.381395 -0.117536 -16.954174 -0.399094 0.001209 16.954570 -0.000000 0.000000 0.000000 -0.582880 -4.030240 -0.516853 0.000000 0.000000 0.000000 -2.335480 1.358330 -0.082242 1.918367 2.254803 -0.586366 4.060781 -5.587178 2.804661 -8.577366 5.830627 -2.617393 0.000000 0.000000 0.000000 0.000000 0.000000 0.000000 -1.152646 0.742917 -0.373749 1.157563 -0.735232 0.388649 6.884989 21.745739 -0.989589 -21.509383 -62.614064 43.810015 0.000000 0.000000 0.000000 0.000000 0.000000 0.000000 4.900184 -2.387761 15.847702 -7.579654 5.938512 1.853754 3.253880 -2.337926 -1.458308 0.000000 0.000000 0.000000 -2.275373 0.832694 17.054512 4.173008 -1.250302 -0.088312 -7.284021 -27.207370 33.562272 0.000000 0.000000 0.000000
-20.936130 61.559016 302.250862 0.187424 -0.045356 -17.531723 -0.192380 -0.013209 17.531775 -0.000000 0.000000 0.000000 -0.457165 -3.969151 -0.562207 0.000000 0.000000 0.000000 -2.467994 1.653970 -0.127366 1.822619 1.912133 -0.595247 6.154887 -5.321056 3.646328 -10.380624 7.749876 -2.856527 0.000000 0.000000 0.000000 0.000000 0.000000 0.000000 -0.660131 1.018993 0.003160 0.660180 -1.018962 0.008581 6.084297 21.492544 -1.180056 -19.855085 -62.355028 44.604364 0.000000 0.000000 0.000000 0.000000 0.000000 0.000000 4.778057 -2.702901 16.467777 -7.040231 6.084772 1.808700 3.147870 -2.259244 -1.440711 0.000000 0.000000 0.000000 -2.028760 0.527155 17.597268 4.471621 -0.778137 -0.062712 -7.695614 -24.572574 28.372507 0.000000 0.000000 0.000000
-20.795344 61.679344 302.167431 0.136217 -0.057771 -18.155303 -0.147437 0.012450 18.155388 -0.000000 0.000000 0.000000 -1.089111 -4.052897 -0.289103 0.000000 0.000000 0.000000 -2.449437 1.698234 -0.137617 1.644126 1.440777 -0.570377 6.856332 -4.517142 3.724218 -8.676434 7.744874 -2.319171 0.000000 0.000000 0.000000 0.000000 0.000000 0.000000 -0.390464 1.588472 0.362557 -0.472477 -1.812231 -0.598535 6.074366 22.999314 -1.463465 -18.010142 -63.476003 45.662796 0.000000 0.000000 0.000000 0.000000 0.000000 0.000000 2.550105 -2.580076 17.477505 -3.562605 4.576987 1.039710 1.901421 -1.413069 -1.241941 0.000000 0.000000 0.000000 -2.169456 0.338416 18.198281 4.976662 -0.524082 -0.043821 -7.214200 -16.371933 15.952032 0.000000 0.000000 0.000000
-20.484920 61.822237 302.092399 0.134337 -0.140916 -18.750677 -0.172505 0.090254 18.750979 -0.000000 0.000000 0.000000 -2.056821 -4.612847 0.036593 0.000000 0.000000 0.000000 -2.248930 1.491202 -0.115880 1.253070 1.171990 -0.593325 6.995536 -4.488705 3.769902 -6.448056 9.943030 -1.514753 0.000000 0.000000 0.000000 0.000000 0.000000 0.000000 -0.416250 2.372317 0.639035 -0.572457 -2.594163 -0.913520 4.402468 25.825685 -2.488833 -12.264979 -64.743724 49.042246 0.000000 0.000000 0.000000 0.000000 0.000000 0.000000 -0.407699 -2.341627 18.588666 0.998707 2.229893 0.138254 0.116020 -0.096378 -0.879824 0.000000 0.000000 0.000000 -2.506103 0.164262 18.768875 4.858436 -0.260114 -0.001757 -5.880548 -10.111917 10.666822 0.000000 0.000000 0.000000
-20.035949 61.976323 302.029452 0.170588 -0.293104 -19.344746 -0.258050 0.220047 19.345678 -0.176581 -0.798551 -0.009241 -3.094139 -4.604618 0.470508 0.000000 0.000000 0.000000 -2.100557 2.155389 -0.048949 0.859100 0.957635 -0.712436 7.226489 -4.921414 3.965354 -4.144874 13.190135 -0.757754 0.000000 0.000000 0.000000 0.000000 0.000000 0.000000 -0.510394 4.266297 0.920749 -0.252087 -3.515237 -1.148057 0.831951 32.945033 -4.685869 -6.142330 -73.932073 51.567297 0.000000 0.000000 0.000000 0.000000 0.000000 0.000000 -3.948981 -1.975416 19.826634 5.501399 -0.456205 -0.656211 -1.298978 1.251290 0.099086 0.000000 0.000000 0.000000 -2.910620 0.253453 19.368635 4.565153 -0.375917 0.018958 0.623722 2.853031 -7.196083 0.000000 0.000000 0.000000
-19.446857 62.075210 301.959002 0.252780 -0.465068 -19.456399 -0.393261 0.354306 19.458641 -0.185114 -0.962669 -0.009226 -4.214695 -5.689258 0.720534 0.000000 0.000000 0.000000 -2.388947 2.100891 0.030357 1.238798 0.119621 -0.590295 5.737018 -4.553848 3.260482 -2.756804 17.662026 0.151331 0.000000 0.000000 0.000000 0.000000 0.000000 0.000000 -1.144652 5.557069 1.021763 0.454051 -4.250994 -1.160578 -6.453890 45.159158 -7.692881 176.086291 -86.066911 -134.929112 0.000000 0.000000 0.000000 0.000000 0.000000 0.000000 -6.606145 -1.827284 20.411518 8.658233 -2.400497 -1.110060 -2.120760 2.229802 0.171712 0.000000 0.000000 0.000000 -3.381179 0.410727 19.494768 4.050189 -0.708035 0.023381 3.991683 6.603683 -12.815062 0.000000 0.000000 0.000000
-18.770842 62.188567 301.860228 0.477424 -0.573306 -19.745716 -0.142178 -0.327342 19.759740 -0.188962 -0.204573 0.000873 -6.165442 -8.025432 0.909301 0.000000 0.000000 0.000000 -3.111815 1.982545 0.107405 1.927921 -0.980260 -0.402197 3.863741 -3.571971 2.304033 -0.096107 19.058275 1.016126 0.000000 0.000000 0.000000 0.000000 0.000000 0.000000 -1.943673 6.629901 1.108823 1.180507 -4.769425 -1.124040 -13.131029 53.422550 -8.854293 -136.156383 -49.896628 -111.479429 0.000000 0.000000 0.000000 0.000000 0.000000 0.000000 -8.705600 -2.080896 21.009681 10.408801 -3.402266 -1.368056 -1.230905 4.314358 -1.553676 0.000000 0.000000 0.000000 -3.918332 0.579190 19.811977 3.014056 -1.297718 -0.000234 4.581275 6.235505 -11.368593 0.000000 0.000000 0.000000
